<svg width="482" height="122" viewBox="0 0 482 122" fill="none" xmlns="http://www.w3.org/2000/svg">
<mask id="mask0_2_95" style="mask-type:luminance" maskUnits="userSpaceOnUse" x="0" y="0" width="482" height="122">
<path d="M32.66 9.85C28.07 9.85 24.36 13.57 24.36 18.15V75.75C24.36 80.34 28.08 84.05 32.66 84.05C37.24 84.05 40.96 80.33 40.96 75.75V18.16C40.96 13.57 37.24 9.86 32.66 9.86V9.85ZM32.78 0C44.59 0 53.01 2.18 58.06 6.53C63.14 10.96 65.69 18.09 65.69 27.9V62.44C65.69 75.33 61.96 84.18 54.5 88.98C48.6 92.8 38.74 94.71 24.92 94.71V101.67C24.92 109.14 29.31 112.88 38.08 112.88C42.51 112.88 48 111.18 54.56 107.77L54.68 117.25C47.67 119.75 40.35 121.01 32.72 121.01C21.03 121.01 12.67 118.92 7.63 114.73C2.55 110.58 0 103.91 0 94.72V27.83C0 17.94 2.54 10.8 7.63 6.4C12.67 2.13 21.05 0 32.78 0ZM115.01 0C126.7 0 135.06 1.81 140.1 5.42C145.08 8.88 147.62 14.5 147.72 22.3V22.79V121.01H122.75V15.7C122.75 11.2 119.17 7.54 114.7 7.4H114.45C109.95 7.4 106.29 10.98 106.15 15.44V15.69V121H82.23V6.9C93.83 2.3 104.76 0 115.01 0ZM194.41 0C205.15 0 212.84 1.81 217.47 5.42C221.97 8.84 224.26 14.44 224.36 22.22V22.72V34.97H202.71V15.07C202.71 10.82 199.27 7.38 195.02 7.38C190.77 7.38 187.33 10.82 187.33 15.07V105.92C187.33 110.17 190.77 113.61 195.02 113.61C199.27 113.61 202.71 110.17 202.71 105.92V86.21H224.36V98.46C224.36 106.59 222.1 112.4 217.59 115.89C213.08 119.3 205.35 121 194.4 121C183.45 121 175.87 119.28 171.28 115.83C166.7 112.33 164.37 106.71 164.27 98.96V98.46V22.72C164.27 14.71 166.61 8.95 171.28 5.42C175.87 1.81 183.58 0 194.4 0L194.41 0ZM301.42 14.78C295.82 14.78 291.27 19.32 291.27 24.93V97.31C291.27 102.91 295.81 107.46 301.42 107.46C307.03 107.46 311.57 102.92 311.57 97.31V24.93C311.57 19.33 307.03 14.78 301.42 14.78ZM301.3 0C317.99 0 332.24 5.91 344.04 17.73C355.85 29.55 361.75 43.82 361.75 60.53C361.75 77.24 355.85 91.44 344.04 103.26C332.23 115.08 317.98 120.99 301.3 120.99C284.62 120.99 270.43 115.08 258.62 103.26C246.81 91.44 240.91 77.19 240.91 60.53C240.91 43.87 246.81 29.56 258.62 17.73C270.43 5.91 284.66 0 301.3 0ZM449.83 0C460.78 0 468.71 1.81 473.63 5.42C478.55 9.03 481.01 14.8 481.01 22.72V121H459.17C459.17 120.9 459.17 120.8 459.17 120.7V15.08C459.17 10.15 455.18 6.16 450.25 6.16C445.32 6.16 441.33 10.15 441.33 15.08V120.71C441.33 120.81 441.33 120.91 441.33 121.01H419.79C419.79 120.91 419.79 120.81 419.79 120.71V15.08C419.79 10.15 415.8 6.16 410.87 6.16C405.94 6.16 401.95 10.15 401.95 15.08V120.71C401.95 120.81 401.95 120.91 401.95 121.01H378.27V6.77C389.26 2.25 400.04 0 410.62 0C418.57 0 424.83 0.94 429.38 2.83C438.97 0.94 445.78 0 449.8 0H449.83Z" fill="white"/>
</mask>
<g mask="url(#mask0_2_95)">
<mask id="mask1_2_95" style="mask-type:luminance" maskUnits="userSpaceOnUse" x="-41" y="-73" width="1181" height="798">
<path d="M1140 -73H-41V725H1140V-73Z" fill="white"/>
</mask>
<g mask="url(#mask1_2_95)">
<path d="M486 -5H-5V126H486V-5Z" fill="#566776"/>
</g>
</g>
</svg>
